# xmcd
#
# Track frame offsets: 
#        150
#        12905
#        25067
#        36480
#        52465
#        63692
#        71470
#        84722
#        96890
#        114440
#        123585
#        133465
#        147042
#        162980
#        177620
#        195107
#        212022
#        228697
#        234160
#
# Disc length: 3222 seconds
#
# Revision: 2
# Processed by: cddbd v1.5.2PL0 Copyright (c) Steve Scherf et al.
# Submitted via: ExactAudioCopy v0.95b4
#
DISCID=1a0c9413
DTITLE=Michael Jerome Browne - Michaal Jerome Browne
DYEAR=1998
DGENRE=Folk/Traditional/Blues
TTITLE0=Country Breakdown
TTITLE1=Wartime Blues
TTITLE2=You Can't Keep A Good Man Down
TTITLE3=Blacktop
TTITLE4=Reuben
TTITLE5=Sandy River Belles
TTITLE6=Rising River Blues
TTITLE7=Manic Depression
TTITLE8=Gambling Blues
TTITLE9=Saturday Night Rub
TTITLE10=Les plats tous mis sur la table
TTITLE11=La danse carrée - La belle Catherine
TTITLE12=Boogie Chillen
TTITLE13=Green River Blues
TTITLE14=Walk On
TTITLE15=I Want To Go Home
TTITLE16=This Must Be The Place (Naïve Melody)
TTITLE17=Sandy River Belles (Reprise)
TTITLE18=You're For Me
EXTD=
EXTT0=
EXTT1=
EXTT2=
EXTT3=
EXTT4=
EXTT5=
EXTT6=
EXTT7=
EXTT8=
EXTT9=
EXTT10=
EXTT11=
EXTT12=
EXTT13=
EXTT14=
EXTT15=
EXTT16=
EXTT17=
EXTT18=
PLAYORDER=
